<svg xmlns="http://www.w3.org/2000/svg" viewBox="0 0 800 800"><path d="M594.65,746c-91.27,0-216.23-43.44-354.86-166-183.53-162.06-226-318.26-205-410C47.47,113.85,85.06,74.31,139.24,59.17c49.79-13.66,66.87,18.06,83,49.31,6.84,12.69,14.16,26.84,25.38,43.44,9.76,14.64,19.53,25.38,28.32,34.65,21.47,23.43,45.39,49.79,6.83,97.14a180.32,180.32,0,0,1-12.69,13.67c-14.65,15.13-21.48,22.45-10.74,52.22,18.55,50.77,38.56,80,80.54,117.15s73.7,53.7,125.93,65.41c31.24,7.32,37.1-.49,50.28-17.08a145.44,145.44,0,0,1,12.21-14.16C570.74,457,600,478,625.9,496c10.25,7.32,22,15.62,37.58,23.43,17.58,8.79,32.71,14.65,45.89,20,32.7,12.69,66.87,25.38,59.06,76.64-8.3,56.13-42.95,97.62-97.14,117.14-21,8.3-46.86,12.7-76.63,12.7ZM159.74,104.57a24.27,24.27,0,0,0-7.32,1.46c-37.1,10.26-61.5,36.12-70.29,75.18C65,255.89,104.58,395.49,272,543.88S583.43,714.23,655.18,688.36c37.1-13.67,60-41,65.9-79.07C723,596.6,723,596.6,692.76,585.37c-13.66-5.37-31.23-11.72-50.76-22a345.38,345.38,0,0,1-43.44-27.33c-7.33-5.37-17.09-12.2-20.51-12.2,0,0-3.9.48-14.15,11.22-2.93,2.93-5.86,6.84-9.28,10.74-16.1,20-38.56,47.84-99.08,34.17-61-13.67-99.58-33.68-147.42-76.64-47.34-42-73.22-79.07-94.2-137.16-21-58.58,3.41-84,21.47-102.51A100.38,100.38,0,0,0,245.15,253c9.28-11.72,9.77-15.63,9.77-15.63-.49-2.93-8.79-12.2-14.65-18.55-9.27-10.25-20.5-22.45-32.22-40-12.69-18.55-21-34.66-27.82-47.84-11.71-21-14.65-26.36-20.5-26.36Zm0,0"/></svg>