<?xml version="1.0" standalone="no"?><!DOCTYPE svg PUBLIC "-//W3C//DTD SVG 1.1//EN"
        "http://www.w3.org/Graphics/SVG/1.1/DTD/svg11.dtd">
<svg t="1672147435182" class="icon" viewBox="0 0 1024 1024" version="1.1" xmlns="http://www.w3.org/2000/svg" p-id="1665"
     xmlns:xlink="http://www.w3.org/1999/xlink" width="200" height="200">
    <path d="M595.2 938.666667H106.666667V330.666667c0-55.466667 34.133333-106.666667 87.466666-128l268.8-108.8c49.066667-19.2 104.533333 4.266667 123.733334 53.333333 4.266667 10.666667 6.4 23.466667 6.4 36.266667V938.666667zM170.666667 874.666667h360.533333V181.333333c0-17.066667-14.933333-32-32-32-4.266667 0-8.533333 0-12.8 2.133334l-270.933333 108.8C189.866667 273.066667 170.666667 298.666667 170.666667 330.666667V874.666667z"
          fill="#ffffff" p-id="1666"></path>
    <path d="M917.333333 938.666667H567.466667v-64H853.333333V518.4c0-34.133333-23.466667-64-55.466666-72.533333l-238.933334-64L576 320l238.933333 64c59.733333 17.066667 102.4 70.4 102.4 134.4V938.666667z"
          fill="#ffffff" p-id="1667"></path>
    <path d="M949.333333 938.666667h-874.666666c-17.066667 0-32-14.933333-32-32 0-19.2 14.933333-32 32-32h874.666666c17.066667 0 32 14.933333 32 32s-14.933333 32-32 32zM405.333333 403.2h-106.666666c-17.066667 0-32-14.933333-32-32s14.933333-32 32-32h106.666666c17.066667 0 32 14.933333 32 32s-14.933333 32-32 32zM405.333333 565.333333h-106.666666c-17.066667 0-32-14.933333-32-32s14.933333-32 32-32h106.666666c17.066667 0 32 14.933333 32 32s-14.933333 32-32 32zM405.333333 727.466667h-106.666666c-17.066667 0-32-14.933333-32-32s14.933333-32 32-32h106.666666c17.066667 0 32 14.933333 32 32s-14.933333 32-32 32zM759.466667 727.466667h-64c-17.066667 0-32-14.933333-32-32s14.933333-32 32-32h64c17.066667 0 32 14.933333 32 32s-14.933333 32-32 32z"
          fill="#ffffff" p-id="1668"></path>
</svg>