<?xml version="1.0" standalone="no"?>
<!DOCTYPE svg PUBLIC "-//W3C//DTD SVG 1.1//EN" "http://www.w3.org/Graphics/SVG/1.1/DTD/svg11.dtd">
<svg t="1672148832335" class="icon" viewBox="0 0 1024 1024" version="1.1" xmlns="http://www.w3.org/2000/svg" xmlns:xlink="http://www.w3.org/1999/xlink" width="200" height="200">
    <path d="M399.9 736.3l-50.6 44.4-86.7-60.7-82.1 61.5-48.9-36.6V130.2H667v299.4c0 18.7 15.2 33.9 33.9 33.9s33.9-15.2 33.9-33.9V118.9c0-31.1-25.3-56.5-56.5-56.5h-558c-31.1 0-56.5 25.3-56.5 56.5v659.8l116.7 87.4 83.5-62.5 90.1 63.2 90.6-79.6c14-12.3 15.4-33.7 3.1-47.8-12.4-14-33.8-15.4-47.9-3.1z" fill="#000000"></path>
    <path d="M904.1 498.4h-369c-31.1 0-56.5 25.3-56.5 56.5v270c0 31.1 25.3 56.5 56.5 56.5h157.7l143.5 71.9c7 4.2 14.8 6.3 22.7 6.3 6.9 0 13.7-1.6 20.1-4.9 14.8-7.6 24-22.6 24-39.3v-34.2h0.9c31.1 0 56.5-25.3 56.5-56.5v-270c0-31-25.3-56.3-56.4-56.3z m-11.3 315.1h-57.4V877l-126.5-63.4H546.4V566.1h346.4v247.4zM202.9 252.2h202.9c12.5 0 22.6-10.1 22.6-22.6 0-12.5-10.1-22.6-22.6-22.6H202.9c-12.5 0-22.6 10.1-22.6 22.6 0 12.5 10.1 22.6 22.6 22.6zM202.9 437.4c-12.5 0-22.6 10.1-22.6 22.6s10.1 22.6 22.6 22.6h202.9c12.5 0 22.6-10.1 22.6-22.6s-10.1-22.6-22.6-22.6H202.9zM506.9 341.1c0-12.5-10.1-22.6-22.6-22.6H202.9c-12.5 0-22.6 10.1-22.6 22.6s10.1 22.6 22.6 22.6h281.5c12.4 0 22.5-10.1 22.5-22.6z" fill="#000000"></path>
    <path d="M657.7 716.9c18.4 0 33.4-15 33.4-33.4s-15-33.4-33.4-33.4-33.4 15-33.4 33.4 14.9 33.4 33.4 33.4zM781.4 716.9c18.5 0 33.4-15 33.4-33.4s-14.9-33.4-33.4-33.4c-18.4 0-33.3 15-33.3 33.4s14.9 33.4 33.3 33.4z" fill="#000000"></path>
</svg>